# xmcd
#
# Track frame offsets: 
#        200
#        22767
#        42792
#        65657
#        86507
#        111072
#        140012
#        164385
#        199312
#        219780
#        239647
#        278592
#        304745
#
# Disc length: 4503 seconds
#
# Revision: 0
# Processed by: cddbd v1.5.1PL0 Copyright (c) Steve Scherf et al.
# Submitted via: ExactAudioCopy v0.95a5
#
DISCID=b111950d
DTITLE=Various Artist - Olympia Brass Band
DYEAR=1995
DGENRE=Jazz
TTITLE0=This Train is Bound for Glory
TTITLE1=Muskrat Ramble
TTITLE2=In the Sweet Bye and Bye
TTITLE3=High Society
TTITLE4=Bourbon Street Parade
TTITLE5=Panarama Rag
TTITLE6=Lord, Lord, Lord
TTITLE7=Birth of the Blues
TTITLE8=Tiger Rag
TTITLE9=Back Home Again in Indiana
TTITLE10=Fidgety Feet
TTITLE11=Second Line '95
TTITLE12=Mardi Gras in New Orleans
EXTD=
EXTT0=
EXTT1=
EXTT2=
EXTT3=
EXTT4=
EXTT5=
EXTT6=
EXTT7=
EXTT8=
EXTT9=
EXTT10=
EXTT11=
EXTT12=
PLAYORDER=
